<svg viewBox="0 0 320 180" xmlns="http://www.w3.org/2000/svg" role="img" aria-label="同じ場所で昼寝">
  <rect width="320" height="180" fill="#e8f0d8"/>
  <rect y="128" width="320" height="52" fill="#80b868"/>
  <rect x="150" y="78" width="16" height="50" fill="#6a5a40"/>
  <ellipse cx="158" cy="66" rx="64" ry="40" fill="#4a8040" opacity="0.85"/>
  <ellipse cx="145" cy="78" rx="44" ry="28" fill="#5a9848" opacity="0.7"/>
  <ellipse cx="172" cy="76" rx="40" ry="26" fill="#5a9848" opacity="0.68"/>
  <ellipse cx="158" cy="130" rx="58" ry="12" fill="#3a6030" opacity="0.18"/>
  <ellipse cx="134" cy="130" rx="20" ry="8" fill="#b09068" opacity="0.85"/>
  <circle cx="118" cy="128" r="9" fill="#b09068" opacity="0.85"/>
  <ellipse cx="186" cy="132" rx="20" ry="8" fill="#907060" opacity="0.85"/>
  <circle cx="204" cy="130" r="9" fill="#907060" opacity="0.85"/>
  <path d="M 107 116 Q 113 110 119 116" stroke="#7a6050" stroke-width="1.5" fill="none" opacity="0.42" stroke-linecap="round"/>
  <path d="M 112 109 Q 117 104 122 109" stroke="#7a6050" stroke-width="1.2" fill="none" opacity="0.28" stroke-linecap="round"/>
  <path d="M 199 118 Q 205 112 211 118" stroke="#7a6050" stroke-width="1.5" fill="none" opacity="0.42" stroke-linecap="round"/>
  <path d="M 203 111 Q 208 106 213 111" stroke="#7a6050" stroke-width="1.2" fill="none" opacity="0.28" stroke-linecap="round"/>
</svg>
